<?xml version="1.0" encoding="UTF-8"?><svg id="_圖層_2" xmlns="http://www.w3.org/2000/svg" xmlns:xlink="http://www.w3.org/1999/xlink" viewBox="0 0 475.69 475.69"><defs><style>.cls-1{fill:#fff;}.cls-2{fill:#825aff;}.cls-3{fill:none;stroke:url(#_未命名漸層_45);stroke-miterlimit:10;stroke-width:3px;}</style><linearGradient id="_未命名漸層_45" x1="126.86" y1="430.03" x2="463.23" y2="93.67" gradientTransform="translate(-57.2 -24)" gradientUnits="userSpaceOnUse"><stop offset="0" stop-color="#dcaced"/><stop offset=".5" stop-color="#fff" stop-opacity="0"/><stop offset="1" stop-color="#dcaced"/></linearGradient></defs><g id="_圖層_2-2"><rect class="cls-3" x="71.16" y="71.16" width="333.37" height="333.37" transform="translate(237.85 -98.52) rotate(45)"/><g><path class="cls-2" d="M314.58,187.38v-.95h-.12c-2.19-16.46-14.56-29.7-30.57-33.18,.36-1.72,1.03-3.94,2.22-6.76,2.99-7.1,10.41-9.22,13.93-9.3,4.75-.1,7.88-3.47,7.88-7.79s-3.86-7.84-8.61-7.84c0,0-12.42-1.59-22.41,11.49-5.82,7.62-7.19,14.95-7.33,19.74-14.34,2.17-27.76,13.97-30.6,31.28-1.12-20.67-15.6-36.15-32.18-39.1,.05-3.6-.48-7.77-2.07-12.38-5.38-15.56-17.68-17.94-17.68-17.94-4.52-1.49-9.28,.63-10.63,4.74-1.36,4.11,.56,8.29,5.04,9.87,3.31,1.17,9.7,5.51,10.31,13.19,.08,.99,.12,1.89,.14,2.73-17.71,3.69-31.02,19.39-31.02,38.2,0,1.02,.05,2.03,.13,3.03h-.13v66.79c0,8.48,6.88,15.36,15.36,15.36h122.97c8.48,0,15.36-6.88,15.36-15.36v-57.28c.15-1.41,.24-2.83,.24-4.28s-.08-2.87-.24-4.28Z"/><path class="cls-1" d="M199.74,159.59c-13.13,0-23.77,10.64-23.77,23.77s10.64,23.77,23.77,23.77,23.77-10.64,23.77-23.77-10.64-23.77-23.77-23.77Zm0,39.37c-8.62,0-15.6-6.99-15.6-15.6s6.99-15.6,15.6-15.6,15.6,6.99,15.6,15.6-6.99,15.6-15.6,15.6Z"/><path class="cls-1" d="M276.9,167.5c-13.13,0-23.77,10.64-23.77,23.77s10.64,23.77,23.77,23.77,23.77-10.64,23.77-23.77-10.64-23.77-23.77-23.77Zm0,39.37c-8.62,0-15.6-6.99-15.6-15.6s6.99-15.6,15.6-15.6,15.6,6.99,15.6,15.6-6.99,15.6-15.6,15.6Z"/></g></g></svg>