<?xml version="1.0" encoding="utf-8"?>
<!-- Generator: Adobe Illustrator 26.5.0, SVG Export Plug-In . SVG Version: 6.00 Build 0)  -->
<svg version="1.1" id="_圖層_2" xmlns="http://www.w3.org/2000/svg" xmlns:xlink="http://www.w3.org/1999/xlink" x="0px" y="0px"
	 viewBox="0 0 110 428" style="enable-background:new 0 0 110 428;" xml:space="preserve">
<style type="text/css">
	.st0{opacity:0.6;fill:#FFFFFF;enable-background:new    ;}
</style>
<g id="_圖層_2-2">
	<polygon class="st0" points="69.8,7.2 9.7,7.2 15.7,1.3 8.5,1.3 0,9.7 8.5,18.2 15.7,18.2 9.7,12.2 64.8,12.2 66.1,211.5 
		9.7,211.5 15.7,205.5 8.5,205.5 0,214 8.5,222.5 15.7,222.5 9.7,216.5 66.2,216.5 67.5,415.8 12.4,415.8 18.4,409.8 11.2,409.8 
		2.7,418.3 11.2,426.7 18.4,426.7 12.4,420.8 72.5,420.8 71.2,216.5 110,216.5 110,211.5 71.1,211.5 	"/>
</g>
</svg>
