<?xml version="1.0" encoding="UTF-8"?><svg id="_圖層_2" xmlns="http://www.w3.org/2000/svg" xmlns:xlink="http://www.w3.org/1999/xlink" viewBox="0 0 93.91 186.92"><defs><style>.cls-1{fill:url(#_金色);}</style><linearGradient id="_金色" x1="0" y1="93.46" x2="96.81" y2="93.46" gradientUnits="userSpaceOnUse"><stop offset="0" stop-color="#fbcf00"/><stop offset=".25" stop-color="#fffcd1"/><stop offset=".3" stop-color="#faf3bf"/><stop offset=".38" stop-color="#eedd92"/><stop offset=".5" stop-color="#dbba4b"/><stop offset=".6" stop-color="#cb9b0c"/><stop offset=".8" stop-color="#e7cd67"/><stop offset=".87" stop-color="#f3e18b"/><stop offset="1" stop-color="#fffcd1"/></linearGradient></defs><g id="_圖層_2-2"><path class="cls-1" d="M93.91,0c-6.72,8.4-13.71,16.54-20.68,24.71l-10.57,12.13c-3.52,4.05-7.13,8.01-10.69,12.03-7.1,8.04-14.41,15.89-21.61,23.82-7.25,7.9-14.59,15.72-21.94,23.52v-5.5l11.01,11.72,10.94,11.79c7.25,7.9,14.5,15.8,21.61,23.83,3.56,4.01,7.16,7.98,10.69,12.03l10.57,12.13c6.97,8.17,13.95,16.31,20.67,24.71-8.01-7.18-15.76-14.61-23.53-22.02l-11.53-11.23c-3.84-3.74-7.61-7.56-11.41-11.34-7.62-7.55-15.11-15.22-22.59-22.9l-11.16-11.57-11.08-11.65-2.61-2.74,2.61-2.75c7.38-7.77,14.78-15.53,22.26-23.21,7.52-7.64,14.95-15.37,22.58-22.91,3.81-3.78,7.57-7.6,11.41-11.34l11.53-11.23c7.76-7.41,15.51-14.84,23.52-22.02Z"/></g></svg>